<?xml version="1.0" encoding="UTF-8"?>
<svg width="512px" height="512px" viewBox="0 0 512 512" version="1.1" xmlns="http://www.w3.org/2000/svg" xmlns:xlink="http://www.w3.org/1999/xlink">
    <title>Artboard</title>
    <g id="Artboard" stroke="none" stroke-width="1" fill="none" fill-rule="evenodd">
        <rect id="Rectangle" fill="#FFFFFF" x="0" y="0" width="512" height="512"></rect>
        <g id="dollar-sign-solid" transform="translate(163.000000, 77.000000)" fill="#0D8BA8" fill-rule="nonzero">
            <path d="M134.387407,163.38 L64.9975027,141.26 C56.9662639,138.74 51.3765216,130.55 51.3765216,121.45 C51.3765216,110.04 59.8575099,100.8 70.3302454,100.8 L112.927936,100.8 C120.766426,100.8 128.476415,103.39 134.901406,108.15 C138.820651,111.02 144.089143,110.32 147.430139,106.75 L169.789108,82.95 C174.350851,78.12 173.708352,70.07 168.632609,65.8 C152.891381,52.36 133.230908,44.87 113.056436,44.8 L113.056436,11.2 C113.056436,5.04 108.430443,0 102.77645,0 L82.2164789,0 C76.5624867,0 71.9364931,5.04 71.9364931,11.2 L71.9364931,44.8 L70.3302454,44.8 C29.403052,44.8 -3.49290244,83.09 0.29784231,128.52 C2.99633857,160.79 25.6123073,187.04 54.1392678,196.14 L119.995427,217.14 C128.026665,219.73 133.616408,227.85 133.616408,236.95 C133.616408,248.36 125.135419,257.6 114.662684,257.6 L72.064993,257.6 C64.2265038,257.6 56.5165145,255.01 50.0915234,250.25 C46.1722788,247.38 40.9037861,248.08 37.5627907,251.65 L15.2038217,275.45 C10.642078,280.28 11.2845771,288.33 16.3603201,292.6 C32.1015483,306.04 51.7620211,313.53 71.9364931,313.6 L71.9364931,347.2 C71.9364931,353.36 76.5624867,358.4 82.2164789,358.4 L102.77645,358.4 C108.430443,358.4 113.056436,353.36 113.056436,347.2 L113.056436,313.46 C142.996895,312.83 171.074106,293.44 180.968592,262.57 C194.782323,219.45 171.588105,175.21 134.387407,163.38 Z" id="Path"></path>
        </g>
    </g>
</svg>